g Buster_009_G
v -0.00982454 0.05360031 0.2664039
v -0.06789288 0.05787992 0.2275242
v -0.00982464 0.08482952 0.2275242
v -0.04656284 0.03654986 0.266404
v -0.09484246 -0.0001882553 0.2275243
v -0.06361313 -0.0001882553 0.2664041
v -0.0678929 -0.05825644 0.2275242
v -0.04656289 -0.03692656 0.266404
v -0.009824668 -0.08520613 0.2275242
v -0.009824635 -0.05397682 0.2664041
v -0.07873738 0.06872454 0.1542603
v -0.009824641 0.100707 0.1542602
v -0.1107199 -0.0001882553 0.1542603
v -0.0787374 -0.06910095 0.1542602
v -0.009824688 -0.1010835 0.1542602
v -0.06888159 0.0588687 0.0554872
v -0.009824658 0.0862771 0.0554872
v -0.09629002 -0.0001882553 0.05548718
v -0.06888162 -0.05924521 0.05548718
v -0.0098247 -0.08665361 0.05548716
v -0.05010372 0.04009085 -0.008126092
v -0.00982468 0.05878439 -0.008126092
v -0.06879728 -0.0001881599 -0.008126092
v -0.05010372 -0.04046726 -0.008126116
v -0.009824705 -0.05916081 -0.008126116
v -0.009824635 -0.05397682 0.2664041
v 0.04824358 -0.05825663 0.2275242
v -0.009824668 -0.08520613 0.2275242
v 0.02691363 -0.03692656 0.266404
v 0.07519321 -0.0001883507 0.2275241
v 0.04396392 -0.0001883507 0.266404
v 0.04824368 0.05787992 0.2275242
v 0.02691367 0.03654986 0.266404
v -0.00982464 0.08482952 0.2275242
v -0.00982454 0.05360031 0.2664039
v 0.05908804 -0.06910105 0.1542602
v -0.009824688 -0.1010835 0.1542602
v 0.09107058 -0.0001883507 0.1542602
v 0.05908817 0.06872445 0.1542603
v -0.009824641 0.100707 0.1542602
v 0.04923224 -0.05924521 0.05548716
v -0.0098247 -0.08665361 0.05548716
v 0.0766407 -0.0001883507 0.05548716
v 0.04923235 0.0588687 0.05548718
v -0.009824658 0.0862771 0.0554872
v 0.03045434 -0.04046726 -0.008126116
v -0.009824705 -0.05916081 -0.008126116
v 0.04914792 -0.0001882553 -0.008126116
v 0.0304544 0.04009075 -0.008126116
v -0.00982468 0.05878439 -0.008126092
v -0.05010372 0.04009085 -0.008126092
v -0.009824674 -0.0001882553 -0.008126116
v -0.00982468 0.05878439 -0.008126092
v -0.06879728 -0.0001881599 -0.008126092
v -0.05010372 -0.04046726 -0.008126116
v -0.009824705 -0.05916081 -0.008126116
v 0.03045434 -0.04046726 -0.008126116
v 0.04914792 -0.0001882553 -0.008126116
v 0.0304544 0.04009075 -0.008126116
v -0.009824604 0.05360022 0.266404
v -0.03660154 0.02658853 0.3248881
v -0.04656286 0.03654995 0.266404
v -0.009824594 0.03901587 0.3248882
v -0.04902876 -0.0001883507 0.3248882
v -0.06361314 -0.0001883507 0.266404
v -0.03660155 -0.02696524 0.3248881
v -0.04656289 -0.03692656 0.266404
v -0.009824621 -0.03939247 0.3248881
v -0.009824643 -0.05397682 0.266404
v -0.009824643 -0.05397682 0.266404
v 0.01695232 -0.02696524 0.3248881
v 0.02691363 -0.03692656 0.266404
v -0.009824621 -0.03939247 0.3248881
v 0.02937957 -0.0001883507 0.3248881
v 0.04396394 -0.0001883507 0.266404
v 0.01695237 0.02658853 0.3248882
v 0.02691369 0.03654986 0.266404
v -0.009824594 0.03901587 0.3248882
v -0.009824604 0.05360022 0.266404
v -0.009824594 0.03901587 0.3248882
v -0.03167468 0.02166176 0.3248881
v -0.03660154 0.02658853 0.3248881
v -0.009824595 0.03180237 0.3248882
v -0.03660154 0.02658853 0.3248881
v -0.04181533 -0.0001883507 0.3248882
v -0.04902876 -0.0001883507 0.3248882
v -0.03167468 0.02166176 0.3248881
v -0.04902876 -0.0001883507 0.3248882
v -0.03167468 -0.02203836 0.3248882
v -0.03660155 -0.02696524 0.3248881
v -0.04181533 -0.0001883507 0.3248882
v -0.03660155 -0.02696524 0.3248881
v -0.009824618 -0.03217907 0.3248881
v -0.009824621 -0.03939247 0.3248881
v -0.03167468 -0.02203836 0.3248882
v -0.009824621 -0.03939247 0.3248881
v 0.01202546 -0.02203846 0.3248881
v 0.01695232 -0.02696524 0.3248881
v -0.009824618 -0.03217907 0.3248881
v 0.02216614 -0.0001883507 0.3248881
v 0.02937957 -0.0001883507 0.3248881
v 0.02937957 -0.0001883507 0.3248881
v 0.0120255 0.02166166 0.3248882
v 0.01695237 0.02658853 0.3248882
v 0.02216614 -0.0001883507 0.3248881
v 0.01695237 0.02658853 0.3248882
v -0.009824595 0.03180237 0.3248882
v -0.009824594 0.03901587 0.3248882
v 0.0120255 0.02166166 0.3248882
v -0.009824595 0.03180237 0.3248882
v -0.02864958 0.01863661 0.2683089
v -0.03167468 0.02166176 0.3248881
v -0.009824608 0.02737331 0.2683089
v -0.03167468 0.02166176 0.3248881
v -0.03738627 -0.0001883507 0.2683089
v -0.04181533 -0.0001883507 0.3248882
v -0.02864958 0.01863661 0.2683089
v -0.04181533 -0.0001883507 0.3248882
v -0.02864959 -0.01901331 0.2683089
v -0.03167468 -0.02203836 0.3248882
v -0.03738627 -0.0001883507 0.2683089
v -0.03167468 -0.02203836 0.3248882
v -0.009824628 -0.02775002 0.2683089
v -0.009824618 -0.03217907 0.3248881
v -0.02864959 -0.01901331 0.2683089
v -0.009824618 -0.03217907 0.3248881
v 0.009000328 -0.01901331 0.2683089
v 0.01202546 -0.02203846 0.3248881
v -0.009824628 -0.02775002 0.2683089
v 0.01202546 -0.02203846 0.3248881
v 0.01773704 -0.0001883507 0.2683089
v 0.02216614 -0.0001883507 0.3248881
v 0.009000328 -0.01901331 0.2683089
v 0.02216614 -0.0001883507 0.3248881
v 0.009000361 0.01863661 0.2683089
v 0.0120255 0.02166166 0.3248882
v 0.01773704 -0.0001883507 0.2683089
v 0.0120255 0.02166166 0.3248882
v -0.009824608 0.02737331 0.2683089
v -0.009824595 0.03180237 0.3248882
v 0.009000361 0.01863661 0.2683089
v -0.02864958 0.01863661 0.2683089
v -0.02864959 -0.01901331 0.2683089
v -0.03738627 -0.0001883507 0.2683089
v -0.009824608 0.02737331 0.2683089
v 0.009000328 -0.01901331 0.2683089
v -0.009824628 -0.02775002 0.2683089
v 0.009000361 0.01863661 0.2683089
v 0.01773704 -0.0001883507 0.2683089
vt 0.008246658 0.6762236
vt 0.1908177 0.5366409
vt 0.008246658 0.5366409
vt 0.1908177 0.6762236
vt 0.3743508 0.5366409
vt 0.3743508 0.6762236
vt 0.5578709 0.5366409
vt 0.5578709 0.6762236
vt 0.7413853 0.5366409
vt 0.7413853 0.6762236
vt 0.1908177 0.3723591
vt 0.008246658 0.3723591
vt 0.3743508 0.3723591
vt 0.5578709 0.3723591
vt 0.7413853 0.3723591
vt 0.1908177 0.1584926
vt 0.008246658 0.1584926
vt 0.3743508 0.1584926
vt 0.5578709 0.1584926
vt 0.7413853 0.1584926
vt 0.1908177 0.006698642
vt 0.008246658 0.006698642
vt 0.3743508 0.006698642
vt 0.5578709 0.006698642
vt 0.7413853 0.006698642
vt 0.7413853 0.6762236
vt 0.5578709 0.5366409
vt 0.7413853 0.5366409
vt 0.5578709 0.6762236
vt 0.3743508 0.5366409
vt 0.3743508 0.6762236
vt 0.1908177 0.5366409
vt 0.1908177 0.6762236
vt 0.008246658 0.5366409
vt 0.008246658 0.6762236
vt 0.5578709 0.3723591
vt 0.7413853 0.3723591
vt 0.3743508 0.3723591
vt 0.1908177 0.3723591
vt 0.008246658 0.3723591
vt 0.5578709 0.1584926
vt 0.7413853 0.1584926
vt 0.3743508 0.1584926
vt 0.1908177 0.1584926
vt 0.008246658 0.1584926
vt 0.5578709 0.006698642
vt 0.7413853 0.006698642
vt 0.3743508 0.006698642
vt 0.1908177 0.006698642
vt 0.008246658 0.006698642
vt 0.9508191 0.9538691
vt 0.8743327 0.8773825
vt 0.8743327 0.9893665
vt 0.9863166 0.8773825
vt 0.9508191 0.8008961
vt 0.8743327 0.7653985
vt 0.7978462 0.800896
vt 0.7623488 0.8773825
vt 0.7978461 0.9538689
vt 0.008246658 0.6762236
vt 0.1908177 0.8478801
vt 0.1908177 0.6762236
vt 0.008246658 0.8478801
vt 0.3743508 0.8478801
vt 0.3743508 0.6762236
vt 0.5578709 0.8478801
vt 0.5578709 0.6762236
vt 0.7413853 0.8478801
vt 0.7413853 0.6762236
vt 0.7413853 0.6762236
vt 0.5578709 0.8478801
vt 0.5578709 0.6762236
vt 0.7413853 0.8478801
vt 0.3743508 0.8478801
vt 0.3743508 0.6762236
vt 0.1908177 0.8478801
vt 0.1908177 0.6762236
vt 0.008246658 0.8478801
vt 0.008246658 0.6762236
vt 0.008246658 0.8484171
vt 0.1908177 0.8950569
vt 0.1908177 0.8484171
vt 0.008246658 0.8950569
vt 0.1908177 0.8484171
vt 0.3743508 0.8950569
vt 0.3743508 0.8484171
vt 0.1908177 0.8950569
vt 0.3743508 0.8484171
vt 0.5578709 0.8950569
vt 0.5578709 0.8484171
vt 0.3743508 0.8950569
vt 0.5578709 0.8484171
vt 0.7413853 0.8950569
vt 0.7413853 0.8484171
vt 0.5578709 0.8950569
vt 0.7413853 0.8484171
vt 0.5578709 0.8950569
vt 0.5578709 0.8484171
vt 0.7413853 0.8950569
vt 0.3743508 0.8950569
vt 0.3743508 0.8484171
vt 0.3743508 0.8484171
vt 0.1908177 0.8950569
vt 0.1908177 0.8484171
vt 0.3743508 0.8950569
vt 0.1908177 0.8484171
vt 0.008246658 0.8950569
vt 0.008246658 0.8484171
vt 0.1908177 0.8950569
vt 0.7413853 0.8950569
vt 0.5578709 0.9961568
vt 0.5578709 0.8950569
vt 0.7413853 0.9961568
vt 0.5578709 0.8950569
vt 0.3743508 0.9961568
vt 0.3743508 0.8950569
vt 0.5578709 0.9961568
vt 0.3743508 0.8950569
vt 0.1908177 0.9961568
vt 0.1908177 0.8950569
vt 0.3743508 0.9961568
vt 0.1908177 0.8950569
vt 0.008636856 0.9961568
vt 0.00869293 0.8950569
vt 0.1908177 0.9961568
vt 0.00869293 0.8950569
vt 0.1908177 0.9961568
vt 0.1908177 0.8950569
vt 0.008636856 0.9961568
vt 0.1908177 0.8950569
vt 0.3743508 0.9961568
vt 0.3743508 0.8950569
vt 0.1908177 0.9961568
vt 0.3743508 0.8950569
vt 0.5578709 0.9961568
vt 0.5578709 0.8950569
vt 0.3743508 0.9961568
vt 0.5578709 0.8950569
vt 0.7413853 0.9961568
vt 0.7413853 0.8950569
vt 0.5578709 0.9961568
vt 0.9603131 0.7140867
vt 0.9603131 0.554673
vt 0.9973051 0.6343797
vt 0.880606 0.7510787
vt 0.8008993 0.5546728
vt 0.8806062 0.5176807
vt 0.8008991 0.7140865
vt 0.7639071 0.6343797
vn 1.621245E-06 0.7796401 0.6262278
vn -0.6474644 0.6474644 0.4019698
vn 0 0.9129012 0.4081806
vn -0.5586758 0.5586753 0.6129954
vn -0.9129011 0 0.4081808
vn -0.7796398 0 0.6262283
vn -0.6474651 -0.6474644 0.4019687
vn -0.5586763 -0.558676 0.6129941
vn -1.268912E-06 -0.9129018 0.4081793
vn 0 -0.7796403 0.6262276
vn -0.7067468 0.7067473 0.03189429
vn 0 0.9994671 0.03264333
vn -0.9994671 0 0.03264355
vn -0.7067471 -0.706747 0.03189396
vn 0 -0.9994671 0.03264289
vn -0.6832087 0.6832089 -0.2577819
vn 0 0.9644747 -0.2641753
vn -0.9644746 0 -0.2641756
vn -0.6832088 -0.6832086 -0.2577823
vn 0 -0.9644745 -0.264176
vn -0.6525301 0.6525306 -0.3852379
vn 0 0.9179396 -0.3967202
vn -0.9179395 0 -0.3967202
vn -0.6525302 -0.65253 -0.3852389
vn 0 -0.9179392 -0.396721
vn 0 -0.7796403 0.6262276
vn 0.6474643 -0.6474652 0.4019687
vn -1.268912E-06 -0.9129018 0.4081793
vn 0.5586761 -0.5586753 0.6129951
vn 0.9129016 0 0.4081797
vn 0.7796402 0 0.6262277
vn 0.6474646 0.6474642 0.4019696
vn 0.5586764 0.558675 0.612995
vn 0 0.9129012 0.4081806
vn 1.621245E-06 0.7796401 0.6262278
vn 0.7067465 -0.7067475 0.03189321
vn 0 -0.9994671 0.03264289
vn 0.9994671 -1.007227E-06 0.03264287
vn 0.7067474 0.7067467 0.03189407
vn 0 0.9994671 0.03264333
vn 0.6832082 -0.6832091 -0.2577826
vn 0 -0.9644745 -0.264176
vn 0.9644744 -1.257229E-06 -0.2641761
vn 0.6832089 0.6832083 -0.2577823
vn 0 0.9644747 -0.2641753
vn 0.6525298 -0.6525303 -0.3852391
vn 0 -0.9179392 -0.396721
vn 0.9179394 0 -0.3967205
vn 0.6525307 0.6525293 -0.3852391
vn 0 0.9179396 -0.3967202
vn 0 0 -1
vn 0 0 -1
vn 0 0 -1
vn 0 0 -1
vn 0 0 -1
vn 0 0 -1
vn 0 0 -1
vn 0 0 -1
vn 0 0 -1
vn 0 0.9702854 0.2419634
vn -0.6874452 0.6874442 0.2341785
vn -0.6874443 0.6874449 0.2341791
vn 0 0.9702855 0.241963
vn -0.9702854 0 0.2419634
vn -0.9702855 0 0.2419631
vn -0.6874449 -0.6874446 0.2341781
vn -0.6874446 -0.6874449 0.2341782
vn 0 -0.9702855 0.2419628
vn 0 -0.9702855 0.2419628
vn 0 -0.9702855 0.2419628
vn 0.6874444 -0.6874453 0.2341777
vn 0.6874442 -0.6874453 0.2341778
vn 0 -0.9702855 0.2419628
vn 0.9702855 0 0.241963
vn 0.9702855 0 0.241963
vn 0.6874458 0.6874437 0.2341781
vn 0.6874457 0.687444 0.2341779
vn 0 0.9702855 0.241963
vn 0 0.9702854 0.2419634
vn -1.216282E-06 -1.216303E-06 1
vn -1.216282E-06 -1.216303E-06 1
vn -1.216282E-06 -1.216303E-06 1
vn -2.182313E-06 0 1
vn 6.610408E-06 0 1
vn 6.610407E-06 0 1
vn 6.610407E-06 0 1
vn 1.490529E-06 1.490554E-06 1
vn -4.177811E-06 -5.500488E-06 1
vn -4.17781E-06 -5.500488E-06 1
vn -4.17781E-06 -5.500488E-06 1
vn 6.610406E-06 3.067905E-06 1
vn 0 0 1
vn 0 0 1
vn 0 0 1
vn -1.577362E-06 -8.100933E-06 1
vn 0 0 1
vn 0 0 1
vn 0 0 1
vn 0 0 1
vn 0 0 1
vn 0 0 1
vn 1.216295E-06 -1.216294E-06 1
vn 1.216295E-06 -1.216294E-06 1
vn 1.216295E-06 -1.216294E-06 1
vn 0 -2.18232E-06 1
vn 0 0 1
vn 0 0 1
vn 0 0 1
vn 0 0 1
vn 0.4199149 -0.9047955 0.0708286
vn 0.4199149 -0.9047955 0.0708286
vn 0.4199149 -0.9047954 0.0708286
vn 0.419917 -0.9047945 0.07082769
vn 0.9047951 -0.4199159 0.07082783
vn 0.9047951 -0.4199158 0.07082783
vn 0.9047951 -0.4199159 0.07082783
vn 0.9047946 -0.4199167 0.07082821
vn 0.9047945 0.4199173 0.07082744
vn 0.9047945 0.4199172 0.07082745
vn 0.9047945 0.4199172 0.07082745
vn 0.9047948 0.4199164 0.07082782
vn 0.4199187 0.9047937 0.07082772
vn 0.4199186 0.9047937 0.07082772
vn 0.4199187 0.9047937 0.07082772
vn 0.4199172 0.9047945 0.07082707
vn -0.4199151 0.9047953 0.07082883
vn -0.4199151 0.9047953 0.07082883
vn -0.4199151 0.9047953 0.07082883
vn -0.4199172 0.9047945 0.07082792
vn -0.9047945 0.419917 0.07082861
vn -0.9047945 0.419917 0.07082861
vn -0.9047945 0.419917 0.07082861
vn -0.9047943 0.4199173 0.07082871
vn -0.9047944 -0.4199172 0.0708281
vn -0.9047944 -0.4199172 0.0708281
vn -0.9047944 -0.4199172 0.0708281
vn -0.9047949 -0.4199159 0.07082865
vn -0.4199181 -0.904794 0.07082786
vn -0.4199181 -0.904794 0.07082787
vn -0.4199181 -0.904794 0.07082785
vn -0.419917 -0.9047945 0.07082736
vn 0 0 1
vn 0 0 1
vn 0 0 1
vn 0 0 1
vn 0 0 1
vn 0 0 1
vn 0 0 1
vn 0 0 1
g Buster_009_G_0
f 3/3/3 2/2/2 1/1/1
f 4/4/4 1/1/1 2/2/2
f 2/2/2 5/5/5 4/4/4
f 6/6/6 4/4/4 5/5/5
f 5/5/5 7/7/7 6/6/6
f 8/8/8 6/6/6 7/7/7
f 7/7/7 9/9/9 8/8/8
f 10/10/10 8/8/8 9/9/9
f 2/2/2 3/3/3 11/11/11
f 12/12/12 11/11/11 3/3/3
f 11/11/11 13/13/13 2/2/2
f 5/5/5 2/2/2 13/13/13
f 13/13/13 14/14/14 5/5/5
f 7/7/7 5/5/5 14/14/14
f 14/14/14 15/15/15 7/7/7
f 9/9/9 7/7/7 15/15/15
f 11/11/11 12/12/12 16/16/16
f 17/17/17 16/16/16 12/12/12
f 16/16/16 18/18/18 11/11/11
f 13/13/13 11/11/11 18/18/18
f 18/18/18 19/19/19 13/13/13
f 14/14/14 13/13/13 19/19/19
f 19/19/19 20/20/20 14/14/14
f 15/15/15 14/14/14 20/20/20
f 16/16/16 17/17/17 21/21/21
f 22/22/22 21/21/21 17/17/17
f 21/21/21 23/23/23 16/16/16
f 18/18/18 16/16/16 23/23/23
f 23/23/23 24/24/24 18/18/18
f 19/19/19 18/18/18 24/24/24
f 24/24/24 25/25/25 19/19/19
f 20/20/20 19/19/19 25/25/25
f 28/28/28 27/27/27 26/26/26
f 29/29/29 26/26/26 27/27/27
f 27/27/27 30/30/30 29/29/29
f 31/31/31 29/29/29 30/30/30
f 30/30/30 32/32/32 31/31/31
f 33/33/33 31/31/31 32/32/32
f 32/32/32 34/34/34 33/33/33
f 35/35/35 33/33/33 34/34/34
f 27/27/27 28/28/28 36/36/36
f 37/37/37 36/36/36 28/28/28
f 36/36/36 38/38/38 27/27/27
f 30/30/30 27/27/27 38/38/38
f 38/38/38 39/39/39 30/30/30
f 32/32/32 30/30/30 39/39/39
f 39/39/39 40/40/40 32/32/32
f 34/34/34 32/32/32 40/40/40
f 36/36/36 37/37/37 41/41/41
f 42/42/42 41/41/41 37/37/37
f 41/41/41 43/43/43 36/36/36
f 38/38/38 36/36/36 43/43/43
f 43/43/43 44/44/44 38/38/38
f 39/39/39 38/38/38 44/44/44
f 44/44/44 45/45/45 39/39/39
f 40/40/40 39/39/39 45/45/45
f 41/41/41 42/42/42 46/46/46
f 47/47/47 46/46/46 42/42/42
f 46/46/46 48/48/48 41/41/41
f 43/43/43 41/41/41 48/48/48
f 48/48/48 49/49/49 43/43/43
f 44/44/44 43/43/43 49/49/49
f 49/49/49 50/50/50 44/44/44
f 45/45/45 44/44/44 50/50/50
f 53/53/53 52/52/52 51/51/51
f 51/51/51 52/52/52 54/54/54
f 54/54/54 52/52/52 55/55/55
f 55/55/55 52/52/52 56/56/56
f 56/56/56 52/52/52 57/57/57
f 57/57/57 52/52/52 58/58/58
f 58/58/58 52/52/52 59/59/59
f 59/59/59 52/52/52 53/53/53
f 62/62/62 61/61/61 60/60/60
f 63/63/63 60/60/60 61/61/61
f 61/61/61 62/62/62 64/64/64
f 65/65/65 64/64/64 62/62/62
f 64/64/64 65/65/65 66/66/66
f 67/67/67 66/66/66 65/65/65
f 66/66/66 67/67/67 68/68/68
f 69/69/69 68/68/68 67/67/67
f 72/72/72 71/71/71 70/70/70
f 73/73/73 70/70/70 71/71/71
f 71/71/71 72/72/72 74/74/74
f 75/75/75 74/74/74 72/72/72
f 74/74/74 75/75/75 76/76/76
f 77/77/77 76/76/76 75/75/75
f 76/76/76 77/77/77 78/78/78
f 79/79/79 78/78/78 77/77/77
f 82/82/82 81/81/81 80/80/80
f 83/83/83 80/80/80 81/81/81
f 86/86/86 85/85/85 84/84/84
f 87/87/87 84/84/84 85/85/85
f 90/90/90 89/89/89 88/88/88
f 91/91/91 88/88/88 89/89/89
f 94/94/94 93/93/93 92/92/92
f 95/95/95 92/92/92 93/93/93
f 98/98/98 97/97/97 96/96/96
f 99/99/99 96/96/96 97/97/97
f 97/97/97 98/98/98 100/100/100
f 101/101/101 100/100/100 98/98/98
f 104/104/104 103/103/103 102/102/102
f 105/105/105 102/102/102 103/103/103
f 108/108/108 107/107/107 106/106/106
f 109/109/109 106/106/106 107/107/107
f 112/112/112 111/111/111 110/110/110
f 113/113/113 110/110/110 111/111/111
f 116/116/116 115/115/115 114/114/114
f 117/117/117 114/114/114 115/115/115
f 120/120/120 119/119/119 118/118/118
f 121/121/121 118/118/118 119/119/119
f 124/124/124 123/123/123 122/122/122
f 125/125/125 122/122/122 123/123/123
f 128/128/128 127/127/127 126/126/126
f 129/129/129 126/126/126 127/127/127
f 132/132/132 131/131/131 130/130/130
f 133/133/133 130/130/130 131/131/131
f 136/136/136 135/135/135 134/134/134
f 137/137/137 134/134/134 135/135/135
f 140/140/140 139/139/139 138/138/138
f 141/141/141 138/138/138 139/139/139
f 144/144/144 143/143/143 142/142/142
f 143/143/143 145/145/145 142/142/142
f 146/146/146 145/145/145 143/143/143
f 147/147/147 146/146/146 143/143/143
f 148/148/148 145/145/145 146/146/146
f 149/149/149 148/148/148 146/146/146
